name C:\Users\tom_v\My Drive\PostDoc\MusculoskeletalSpecialization\ResultsSprinting\Case_3\motion.mot
datacolumns 32
datarows 5
range 0.14071948 0.16323460
endheader 
time	pelvis_tilt	pelvis_list	pelvis_rotation	pelvis_tx	pelvis_ty	pelvis_tz	hip_flexion_r	hip_adduction_r	hip_rotation_r	knee_angle_r	ankle_angle_r	subtalar_angle_r	mtp_angle_r	hip_flexion_l	hip_adduction_l	hip_rotation_l	knee_angle_l	ankle_angle_l	subtalar_angle_l	mtp_angle_l	lumbar_extension	lumbar_bending	lumbar_rotation	arm_flex_r	arm_add_r	arm_rot_r	elbow_flex_r	arm_flex_l	arm_add_l	arm_rot_l	elbow_flex_l	
          0.14071948	        -11.11589756	          1.85449256	          1.78753893	          0.45718766	          0.89803350	          0.00464891	          9.27632488	          3.59678253	          5.47544509	        -35.24922782	          9.24608718	         -4.27854421	         45.68267433	         41.85412097	          3.19417969	         -3.15015711	        -77.04509704	          6.97291358	          1.95604362	          2.35027603	         -3.93972531	         -2.78487119	          3.96079068	         -1.89377260	        -11.71951282	         12.40716506	         46.98206001	         -0.69855851	         -8.28804999	          5.04981102	         51.96405885	
          0.14634826	        -11.15303157	          2.07943818	          1.79902969	          0.47598917	          0.90004977	          0.00462953	          7.74322065	          3.10073973	          5.13371751	        -34.29356342	          7.76894920	         -3.44291115	         46.93007571	         43.06473500	          3.51485201	         -3.25086136	        -76.19445300	          6.96479632	          1.58372851	          2.17256530	         -3.94158373	         -3.20707544	          4.20265440	         -2.19812848	        -11.79779448	         12.49141569	         47.56669468	         -0.95569864	         -8.28222239	          4.67552080	         52.98435594	
          0.15197704	        -11.18638040	          2.28289192	          1.81032437	          0.49484741	          0.90195270	          0.00460254	          6.27344859	          2.63609630	          4.81055080	        -33.45914170	          6.31993518	         -2.54714542	         47.78434121	         44.20287141	          3.81341814	         -3.30593526	        -75.19308659	          6.88521961	          1.22053151	          2.00852204	         -3.93599104	         -3.60285115	          4.43034434	         -2.43953473	        -11.84950014	         12.60688986	         47.95644485	         -1.15198992	         -8.24919473	          4.30454568	         53.78775691	
          0.15760582	        -11.21585269	          2.46460367	          1.82090157	          0.51375548	          0.90373191	          0.00456756	          4.87707368	          2.20319032	          4.50926861	        -32.75549583	          4.86723311	         -1.61161250	         48.31452710	         45.26624651	          4.08972341	         -3.31658176	        -74.04818370	          6.73504407	          0.86372209	          1.85679350	         -3.92372118	         -3.97107191	          4.64296072	         -2.61585182	        -11.87373666	         12.75195952	         48.14882213	         -1.28574018	         -8.19071705	          3.93868096	         54.37079290	
          0.16323460	        -11.24128905	          2.62469328	          1.82960737	          0.53270353	          0.90537954	          0.00452315	          3.56306689	          1.80060898	          4.23116563	        -32.19083673	          3.39480508	         -0.64541811	         48.56433293	         46.25215310	          4.34277176	         -3.28768603	        -72.76560234	          6.51507786	          0.51185190	          1.71683998	         -3.90658259	         -4.31055453	          4.83954840	         -2.72504221	        -11.86976913	         12.92388113	         48.14364766	         -1.35549170	         -8.10865938	          3.57988788	         54.73133875	
